# xmcd CD database file
#
# Track frame offsets:
#	187
#	17145
#	30262
#	48455
#	68775
#	83390
#	98185
#	109542
#	137217
#	156817
#	167300
#	184582
#	192602
#	199397
#	209945
#	217145
#	232032
#	258170
#	272010
#	292490
#	312020
#
# Disc length: 4439 seconds
#
# Revision: 0
# Processed by: cddbd v1.5.1PL0 Copyright (c) Steve Scherf et al.
# Submitted via: CDex 1.51
#
DISCID=38115515
DTITLE=Various Artist - 超天然未来形アルバム3
DYEAR=1900
DGENRE=サウンドトラック (一般/日本)
TTITLE0=未来形アイドル
TTITLE1=愛のバロン日曜劇場・パート1
TTITLE2=狂気の完成
TTITLE3=侵蝕する闇
TTITLE4=愛のバロン日曜劇場・パート2
TTITLE5=揺れる胸、騒ぐ力こぶ
TTITLE6=なにがなんだか・・・
TTITLE7=愛のバロン日曜劇場・パート3
TTITLE8=悲しき宿命
TTITLE9=さらなる決意
TTITLE10=愛のバロン日曜劇場・パート4
TTITLE11=赤風参上!桃風参上
TTITLE12=強き想い。
TTITLE13=力の限り
TTITLE14=召還
TTITLE15=聖なる力をかりて
TTITLE16=もう一度逢いたい
TTITLE17=休息
TTITLE18=みんな、忘れない。
TTITLE19=愛のバロン日曜劇場・パート5
TTITLE20=勇気の引力
EXTD=
EXTT0=
EXTT1=
EXTT2=
EXTT3=
EXTT4=
EXTT5=
EXTT6=
EXTT7=
EXTT8=
EXTT9=
EXTT10=
EXTT11=
EXTT12=
EXTT13=
EXTT14=
EXTT15=
EXTT16=
EXTT17=
EXTT18=
EXTT19=
EXTT20=
PLAYORDER=
